<mxfile host="app.diagrams.net" modified="2023-06-21T23:29:15.897Z" agent="Mozilla/5.0 (Macintosh; Intel Mac OS X 10_15_7) AppleWebKit/605.1.15 (KHTML, like Gecko) Version/16.2 Safari/605.1.15" etag="45HHDmLJQjGUODz_1539" version="21.5.0">
  <diagram name="Seite-1" id="kJc0GBd1WQ4qRxmiGFLH">
    <mxGraphModel dx="739" dy="521" grid="1" gridSize="10" guides="1" tooltips="1" connect="1" arrows="1" fold="1" page="1" pageScale="1" pageWidth="827" pageHeight="1169" math="0" shadow="0">
      <root>
        <mxCell id="0" />
        <mxCell id="1" parent="0" />
        <mxCell id="Nun4g4gpAGNbCtUw3FpC-31" value="" style="whiteSpace=wrap;html=1;" vertex="1" parent="1">
          <mxGeometry x="361" y="354" width="539" height="90" as="geometry" />
        </mxCell>
        <mxCell id="Nun4g4gpAGNbCtUw3FpC-22" value="" style="whiteSpace=wrap;html=1;" vertex="1" parent="1">
          <mxGeometry x="360.5" y="125" width="539" height="90" as="geometry" />
        </mxCell>
        <mxCell id="urf95hoz3ueYo8sumKi7-8" value="&lt;span style=&quot;background-color: rgb(213, 232, 212);&quot;&gt;produce( )&lt;/span&gt;" style="edgeStyle=orthogonalEdgeStyle;rounded=0;orthogonalLoop=1;jettySize=auto;html=1;entryX=0.504;entryY=-0.029;entryDx=0;entryDy=0;entryPerimeter=0;" parent="1" source="urf95hoz3ueYo8sumKi7-1" target="urf95hoz3ueYo8sumKi7-4" edge="1">
          <mxGeometry relative="1" as="geometry" />
        </mxCell>
        <mxCell id="urf95hoz3ueYo8sumKi7-10" style="rounded=0;orthogonalLoop=1;jettySize=auto;html=1;exitX=0.75;exitY=1;exitDx=0;exitDy=0;entryX=0.25;entryY=0;entryDx=0;entryDy=0;" parent="1" source="urf95hoz3ueYo8sumKi7-1" target="urf95hoz3ueYo8sumKi7-5" edge="1">
          <mxGeometry relative="1" as="geometry" />
        </mxCell>
        <mxCell id="urf95hoz3ueYo8sumKi7-1" value="Tier 2&amp;nbsp;&lt;br&gt;Supplier" style="text;html=1;strokeColor=none;fillColor=none;align=center;verticalAlign=middle;whiteSpace=wrap;rounded=0;" parent="1" vertex="1">
          <mxGeometry x="380" y="270" width="60" height="30" as="geometry" />
        </mxCell>
        <mxCell id="urf95hoz3ueYo8sumKi7-4" value="&lt;font style=&quot;font-size: 7px;&quot;&gt;&lt;b&gt;ProductID&lt;/b&gt;: &amp;nbsp;1&lt;br&gt;&lt;br&gt;&lt;b&gt;basedOn&lt;/b&gt;: NULL&lt;br&gt;&lt;br&gt;&lt;br&gt;&lt;/font&gt;" style="aspect=fixed;align=left;verticalAlign=middle;html=1;fontSize=8;horizontal=1;fillColor=#d5e8d4;strokeColor=#82b366;" parent="1" vertex="1">
          <mxGeometry x="370" y="360" width="80" height="80" as="geometry" />
        </mxCell>
        <mxCell id="urf95hoz3ueYo8sumKi7-5" value="&lt;b&gt;TransferedID&lt;/b&gt;: 1&lt;br&gt;&lt;br&gt;&lt;b&gt;from&lt;/b&gt;: supplier2ID&lt;br&gt;&lt;br&gt;&lt;b&gt;to&lt;/b&gt;: supplier1ID" style="whiteSpace=wrap;html=1;aspect=fixed;fontSize=8;align=left;fillColor=#dae8fc;strokeColor=#6c8ebf;" parent="1" vertex="1">
          <mxGeometry x="480" y="360" width="80" height="80" as="geometry" />
        </mxCell>
        <mxCell id="urf95hoz3ueYo8sumKi7-9" style="edgeStyle=orthogonalEdgeStyle;rounded=0;orthogonalLoop=1;jettySize=auto;html=1;entryX=0.5;entryY=0;entryDx=0;entryDy=0;" parent="1" source="urf95hoz3ueYo8sumKi7-6" target="urf95hoz3ueYo8sumKi7-7" edge="1">
          <mxGeometry relative="1" as="geometry" />
        </mxCell>
        <mxCell id="urf95hoz3ueYo8sumKi7-13" value="produce( )" style="edgeLabel;html=1;align=center;verticalAlign=middle;resizable=0;points=[];labelBackgroundColor=#d5e8d4;" parent="urf95hoz3ueYo8sumKi7-9" vertex="1" connectable="0">
          <mxGeometry x="-0.0716" relative="1" as="geometry">
            <mxPoint as="offset" />
          </mxGeometry>
        </mxCell>
        <mxCell id="urf95hoz3ueYo8sumKi7-6" value="Tier 1&amp;nbsp;&lt;br&gt;Supplier" style="text;html=1;strokeColor=none;fillColor=none;align=center;verticalAlign=middle;whiteSpace=wrap;rounded=0;" parent="1" vertex="1">
          <mxGeometry x="600" y="270" width="60" height="30" as="geometry" />
        </mxCell>
        <mxCell id="urf95hoz3ueYo8sumKi7-7" value="&lt;font style=&quot;font-size: 7px;&quot;&gt;&lt;b&gt;ProductID&lt;/b&gt;: &amp;nbsp;2&lt;br&gt;&lt;br&gt;&lt;b&gt;basedOn&lt;/b&gt;: [ 1 ]&lt;br&gt;&lt;br&gt;&lt;br&gt;&lt;/font&gt;" style="aspect=fixed;align=left;verticalAlign=middle;html=1;fontSize=8;horizontal=1;fillColor=#d5e8d4;strokeColor=#82b366;" parent="1" vertex="1">
          <mxGeometry x="590" y="360" width="80" height="80" as="geometry" />
        </mxCell>
        <mxCell id="urf95hoz3ueYo8sumKi7-12" style="rounded=0;orthogonalLoop=1;jettySize=auto;html=1;exitX=0.25;exitY=1;exitDx=0;exitDy=0;entryX=0.75;entryY=0;entryDx=0;entryDy=0;" parent="1" source="urf95hoz3ueYo8sumKi7-6" target="urf95hoz3ueYo8sumKi7-5" edge="1">
          <mxGeometry relative="1" as="geometry">
            <mxPoint x="435" y="310" as="sourcePoint" />
            <mxPoint x="510" y="370" as="targetPoint" />
          </mxGeometry>
        </mxCell>
        <mxCell id="urf95hoz3ueYo8sumKi7-16" value="transfer( )" style="text;html=1;align=center;verticalAlign=middle;resizable=0;points=[];autosize=1;strokeColor=none;fillColor=none;rotation=38;labelBackgroundColor=#dae8fc;" parent="1" vertex="1">
          <mxGeometry x="427" y="307" width="80" height="30" as="geometry" />
        </mxCell>
        <mxCell id="urf95hoz3ueYo8sumKi7-17" value="&lt;span style=&quot;background-color: rgb(218, 232, 252);&quot;&gt;transfer( )&lt;/span&gt;" style="text;html=1;align=center;verticalAlign=middle;resizable=0;points=[];autosize=1;strokeColor=none;fillColor=none;rotation=321;" parent="1" vertex="1">
          <mxGeometry x="534" y="305" width="80" height="30" as="geometry" />
        </mxCell>
        <mxCell id="urf95hoz3ueYo8sumKi7-18" style="rounded=0;orthogonalLoop=1;jettySize=auto;html=1;exitX=0.75;exitY=1;exitDx=0;exitDy=0;entryX=0.25;entryY=0;entryDx=0;entryDy=0;" parent="1" source="urf95hoz3ueYo8sumKi7-6" target="urf95hoz3ueYo8sumKi7-19" edge="1">
          <mxGeometry relative="1" as="geometry">
            <mxPoint x="645" y="300" as="sourcePoint" />
          </mxGeometry>
        </mxCell>
        <mxCell id="urf95hoz3ueYo8sumKi7-19" value="&lt;b&gt;TransferedID&lt;/b&gt;: 2&lt;br&gt;&lt;br&gt;&lt;b&gt;from&lt;/b&gt;: supplier2ID&lt;br&gt;&lt;br&gt;&lt;b&gt;to&lt;/b&gt;: oemID" style="whiteSpace=wrap;html=1;aspect=fixed;fontSize=8;align=left;fillColor=#dae8fc;strokeColor=#6c8ebf;" parent="1" vertex="1">
          <mxGeometry x="700" y="360" width="80" height="80" as="geometry" />
        </mxCell>
        <mxCell id="urf95hoz3ueYo8sumKi7-20" style="edgeStyle=orthogonalEdgeStyle;rounded=0;orthogonalLoop=1;jettySize=auto;html=1;entryX=0.5;entryY=0;entryDx=0;entryDy=0;" parent="1" source="urf95hoz3ueYo8sumKi7-22" target="urf95hoz3ueYo8sumKi7-23" edge="1">
          <mxGeometry relative="1" as="geometry" />
        </mxCell>
        <mxCell id="urf95hoz3ueYo8sumKi7-21" value="produce( )" style="edgeLabel;html=1;align=center;verticalAlign=middle;resizable=0;points=[];labelBackgroundColor=#d5e8d4;" parent="urf95hoz3ueYo8sumKi7-20" vertex="1" connectable="0">
          <mxGeometry x="-0.0716" relative="1" as="geometry">
            <mxPoint as="offset" />
          </mxGeometry>
        </mxCell>
        <mxCell id="urf95hoz3ueYo8sumKi7-22" value="OEM" style="text;html=1;strokeColor=none;fillColor=none;align=center;verticalAlign=middle;whiteSpace=wrap;rounded=0;" parent="1" vertex="1">
          <mxGeometry x="820" y="270" width="60" height="30" as="geometry" />
        </mxCell>
        <mxCell id="urf95hoz3ueYo8sumKi7-23" value="&lt;font style=&quot;font-size: 7px;&quot;&gt;&lt;b&gt;ProductID&lt;/b&gt;: &amp;nbsp;3&lt;br&gt;&lt;br&gt;&lt;b&gt;basedOn&lt;/b&gt;: [ 2 ]&lt;br&gt;&lt;br&gt;&lt;br&gt;&lt;/font&gt;" style="aspect=fixed;align=left;verticalAlign=middle;html=1;fontSize=8;horizontal=1;fillColor=#d5e8d4;strokeColor=#82b366;" parent="1" vertex="1">
          <mxGeometry x="810" y="360" width="80" height="80" as="geometry" />
        </mxCell>
        <mxCell id="urf95hoz3ueYo8sumKi7-24" style="rounded=0;orthogonalLoop=1;jettySize=auto;html=1;exitX=0.25;exitY=1;exitDx=0;exitDy=0;entryX=0.75;entryY=0;entryDx=0;entryDy=0;" parent="1" source="urf95hoz3ueYo8sumKi7-22" target="urf95hoz3ueYo8sumKi7-19" edge="1">
          <mxGeometry relative="1" as="geometry">
            <mxPoint x="655" y="310" as="sourcePoint" />
            <mxPoint x="730" y="370" as="targetPoint" />
          </mxGeometry>
        </mxCell>
        <mxCell id="urf95hoz3ueYo8sumKi7-25" value="transfer( )" style="text;html=1;align=center;verticalAlign=middle;resizable=0;points=[];autosize=1;strokeColor=none;fillColor=none;rotation=38;labelBackgroundColor=#dae8fc;" parent="1" vertex="1">
          <mxGeometry x="647" y="307" width="80" height="30" as="geometry" />
        </mxCell>
        <mxCell id="urf95hoz3ueYo8sumKi7-26" value="transfer( )" style="text;html=1;align=center;verticalAlign=middle;resizable=0;points=[];autosize=1;strokeColor=none;fillColor=none;rotation=321;labelBackgroundColor=#dae8fc;" parent="1" vertex="1">
          <mxGeometry x="754" y="305" width="80" height="30" as="geometry" />
        </mxCell>
        <mxCell id="urf95hoz3ueYo8sumKi7-27" value="produce( )" style="edgeStyle=orthogonalEdgeStyle;rounded=0;orthogonalLoop=1;jettySize=auto;html=1;entryX=0.504;entryY=-0.029;entryDx=0;entryDy=0;entryPerimeter=0;" parent="1" source="urf95hoz3ueYo8sumKi7-29" target="urf95hoz3ueYo8sumKi7-30" edge="1">
          <mxGeometry relative="1" as="geometry" />
        </mxCell>
        <mxCell id="urf95hoz3ueYo8sumKi7-28" style="rounded=0;orthogonalLoop=1;jettySize=auto;html=1;exitX=0.75;exitY=1;exitDx=0;exitDy=0;entryX=0.25;entryY=0;entryDx=0;entryDy=0;" parent="1" source="urf95hoz3ueYo8sumKi7-29" target="urf95hoz3ueYo8sumKi7-31" edge="1">
          <mxGeometry relative="1" as="geometry" />
        </mxCell>
        <mxCell id="urf95hoz3ueYo8sumKi7-29" value="Tier 2&amp;nbsp;&lt;br&gt;Supplier" style="text;html=1;strokeColor=none;fillColor=none;align=center;verticalAlign=middle;whiteSpace=wrap;rounded=0;" parent="1" vertex="1">
          <mxGeometry x="380" y="760" width="60" height="30" as="geometry" />
        </mxCell>
        <mxCell id="urf95hoz3ueYo8sumKi7-30" value="&lt;font style=&quot;font-size: 7px;&quot;&gt;&lt;b&gt;ProductID&lt;/b&gt;: &amp;nbsp;1&lt;br&gt;&lt;br&gt;&lt;b&gt;basedOn&lt;/b&gt;: NULL&lt;br&gt;&lt;br&gt;&lt;b&gt;EmissionTokens&lt;/b&gt;: [...]&lt;/font&gt;" style="aspect=fixed;align=left;verticalAlign=middle;html=1;fontSize=8;horizontal=1;" parent="1" vertex="1">
          <mxGeometry x="370" y="850" width="80" height="80" as="geometry" />
        </mxCell>
        <mxCell id="urf95hoz3ueYo8sumKi7-31" value="&lt;b&gt;TransferedID&lt;/b&gt;: 1&lt;br&gt;&lt;br&gt;&lt;b&gt;from&lt;/b&gt;: supplier2ID&lt;br&gt;&lt;br&gt;&lt;b&gt;to&lt;/b&gt;: supplier1ID" style="whiteSpace=wrap;html=1;aspect=fixed;fontSize=8;align=left;" parent="1" vertex="1">
          <mxGeometry x="480" y="850" width="80" height="80" as="geometry" />
        </mxCell>
        <mxCell id="urf95hoz3ueYo8sumKi7-32" style="edgeStyle=orthogonalEdgeStyle;rounded=0;orthogonalLoop=1;jettySize=auto;html=1;entryX=0.5;entryY=0;entryDx=0;entryDy=0;" parent="1" source="urf95hoz3ueYo8sumKi7-34" target="urf95hoz3ueYo8sumKi7-35" edge="1">
          <mxGeometry relative="1" as="geometry" />
        </mxCell>
        <mxCell id="urf95hoz3ueYo8sumKi7-33" value="produce( )" style="edgeLabel;html=1;align=center;verticalAlign=middle;resizable=0;points=[];" parent="urf95hoz3ueYo8sumKi7-32" vertex="1" connectable="0">
          <mxGeometry x="-0.0716" relative="1" as="geometry">
            <mxPoint as="offset" />
          </mxGeometry>
        </mxCell>
        <mxCell id="urf95hoz3ueYo8sumKi7-34" value="Tier 1&amp;nbsp;&lt;br&gt;Supplier" style="text;html=1;strokeColor=none;fillColor=none;align=center;verticalAlign=middle;whiteSpace=wrap;rounded=0;" parent="1" vertex="1">
          <mxGeometry x="600" y="760" width="60" height="30" as="geometry" />
        </mxCell>
        <mxCell id="urf95hoz3ueYo8sumKi7-35" value="&lt;font style=&quot;font-size: 7px;&quot;&gt;&lt;b&gt;ProductID&lt;/b&gt;: &amp;nbsp;2&lt;br&gt;&lt;br&gt;&lt;b&gt;basedOn&lt;/b&gt;: [ 1 ]&lt;br&gt;&lt;br&gt;&lt;b&gt;EmissionTokens&lt;/b&gt;: [...]&lt;/font&gt;" style="aspect=fixed;align=left;verticalAlign=middle;html=1;fontSize=8;horizontal=1;" parent="1" vertex="1">
          <mxGeometry x="590" y="850" width="80" height="80" as="geometry" />
        </mxCell>
        <mxCell id="urf95hoz3ueYo8sumKi7-36" style="rounded=0;orthogonalLoop=1;jettySize=auto;html=1;exitX=0.25;exitY=1;exitDx=0;exitDy=0;entryX=0.75;entryY=0;entryDx=0;entryDy=0;" parent="1" source="urf95hoz3ueYo8sumKi7-34" target="urf95hoz3ueYo8sumKi7-31" edge="1">
          <mxGeometry relative="1" as="geometry">
            <mxPoint x="435" y="800" as="sourcePoint" />
            <mxPoint x="510" y="860" as="targetPoint" />
          </mxGeometry>
        </mxCell>
        <mxCell id="urf95hoz3ueYo8sumKi7-37" value="transfer( )" style="text;html=1;align=center;verticalAlign=middle;resizable=0;points=[];autosize=1;strokeColor=none;fillColor=none;rotation=38;" parent="1" vertex="1">
          <mxGeometry x="427" y="797" width="80" height="30" as="geometry" />
        </mxCell>
        <mxCell id="urf95hoz3ueYo8sumKi7-38" value="transfer( )" style="text;html=1;align=center;verticalAlign=middle;resizable=0;points=[];autosize=1;strokeColor=none;fillColor=none;rotation=321;" parent="1" vertex="1">
          <mxGeometry x="534" y="795" width="80" height="30" as="geometry" />
        </mxCell>
        <mxCell id="urf95hoz3ueYo8sumKi7-39" style="rounded=0;orthogonalLoop=1;jettySize=auto;html=1;exitX=0.75;exitY=1;exitDx=0;exitDy=0;entryX=0.25;entryY=0;entryDx=0;entryDy=0;" parent="1" source="urf95hoz3ueYo8sumKi7-34" target="urf95hoz3ueYo8sumKi7-40" edge="1">
          <mxGeometry relative="1" as="geometry">
            <mxPoint x="645" y="790" as="sourcePoint" />
          </mxGeometry>
        </mxCell>
        <mxCell id="urf95hoz3ueYo8sumKi7-40" value="&lt;b&gt;TransferedID&lt;/b&gt;: 2&lt;br&gt;&lt;br&gt;&lt;b&gt;from&lt;/b&gt;: supplier2ID&lt;br&gt;&lt;br&gt;&lt;b&gt;to&lt;/b&gt;: oemID" style="whiteSpace=wrap;html=1;aspect=fixed;fontSize=8;align=left;" parent="1" vertex="1">
          <mxGeometry x="700" y="850" width="80" height="80" as="geometry" />
        </mxCell>
        <mxCell id="urf95hoz3ueYo8sumKi7-41" style="edgeStyle=orthogonalEdgeStyle;rounded=0;orthogonalLoop=1;jettySize=auto;html=1;entryX=0.5;entryY=0;entryDx=0;entryDy=0;" parent="1" source="urf95hoz3ueYo8sumKi7-43" target="urf95hoz3ueYo8sumKi7-44" edge="1">
          <mxGeometry relative="1" as="geometry" />
        </mxCell>
        <mxCell id="urf95hoz3ueYo8sumKi7-42" value="produce( )" style="edgeLabel;html=1;align=center;verticalAlign=middle;resizable=0;points=[];" parent="urf95hoz3ueYo8sumKi7-41" vertex="1" connectable="0">
          <mxGeometry x="-0.0716" relative="1" as="geometry">
            <mxPoint as="offset" />
          </mxGeometry>
        </mxCell>
        <mxCell id="urf95hoz3ueYo8sumKi7-43" value="OEM" style="text;html=1;strokeColor=none;fillColor=none;align=center;verticalAlign=middle;whiteSpace=wrap;rounded=0;" parent="1" vertex="1">
          <mxGeometry x="820" y="760" width="60" height="30" as="geometry" />
        </mxCell>
        <mxCell id="urf95hoz3ueYo8sumKi7-44" value="&lt;font style=&quot;font-size: 7px;&quot;&gt;&lt;b&gt;ProductID&lt;/b&gt;: &amp;nbsp;3&lt;br&gt;&lt;br&gt;&lt;b&gt;basedOn&lt;/b&gt;: [ 2 ]&lt;br&gt;&lt;br&gt;&lt;b&gt;EmissionTokens&lt;/b&gt;: [...]&lt;/font&gt;" style="aspect=fixed;align=left;verticalAlign=middle;html=1;fontSize=8;horizontal=1;" parent="1" vertex="1">
          <mxGeometry x="810" y="850" width="80" height="80" as="geometry" />
        </mxCell>
        <mxCell id="urf95hoz3ueYo8sumKi7-45" style="rounded=0;orthogonalLoop=1;jettySize=auto;html=1;exitX=0.25;exitY=1;exitDx=0;exitDy=0;entryX=0.75;entryY=0;entryDx=0;entryDy=0;" parent="1" source="urf95hoz3ueYo8sumKi7-43" target="urf95hoz3ueYo8sumKi7-40" edge="1">
          <mxGeometry relative="1" as="geometry">
            <mxPoint x="655" y="800" as="sourcePoint" />
            <mxPoint x="730" y="860" as="targetPoint" />
          </mxGeometry>
        </mxCell>
        <mxCell id="urf95hoz3ueYo8sumKi7-46" value="transfer( )" style="text;html=1;align=center;verticalAlign=middle;resizable=0;points=[];autosize=1;strokeColor=none;fillColor=none;rotation=38;" parent="1" vertex="1">
          <mxGeometry x="647" y="797" width="80" height="30" as="geometry" />
        </mxCell>
        <mxCell id="urf95hoz3ueYo8sumKi7-47" value="transfer( )" style="text;html=1;align=center;verticalAlign=middle;resizable=0;points=[];autosize=1;strokeColor=none;fillColor=none;rotation=321;" parent="1" vertex="1">
          <mxGeometry x="754" y="795" width="80" height="30" as="geometry" />
        </mxCell>
        <mxCell id="urf95hoz3ueYo8sumKi7-48" value="produce( )" style="edgeStyle=orthogonalEdgeStyle;rounded=0;orthogonalLoop=1;jettySize=auto;html=1;entryX=0.504;entryY=-0.029;entryDx=0;entryDy=0;entryPerimeter=0;" parent="1" source="urf95hoz3ueYo8sumKi7-50" target="urf95hoz3ueYo8sumKi7-51" edge="1">
          <mxGeometry relative="1" as="geometry" />
        </mxCell>
        <mxCell id="urf95hoz3ueYo8sumKi7-49" style="rounded=0;orthogonalLoop=1;jettySize=auto;html=1;exitX=0.75;exitY=1;exitDx=0;exitDy=0;entryX=0.25;entryY=0;entryDx=0;entryDy=0;" parent="1" source="urf95hoz3ueYo8sumKi7-50" target="urf95hoz3ueYo8sumKi7-52" edge="1">
          <mxGeometry relative="1" as="geometry" />
        </mxCell>
        <mxCell id="urf95hoz3ueYo8sumKi7-50" value="Tier 2&amp;nbsp;&lt;br&gt;Supplier" style="text;html=1;strokeColor=none;fillColor=none;align=center;verticalAlign=middle;whiteSpace=wrap;rounded=0;" parent="1" vertex="1">
          <mxGeometry x="380" y="500" width="60" height="30" as="geometry" />
        </mxCell>
        <mxCell id="urf95hoz3ueYo8sumKi7-51" value="&lt;font style=&quot;font-size: 7px;&quot;&gt;&lt;b&gt;ProductID&lt;/b&gt;: &amp;nbsp;1&lt;br&gt;&lt;br&gt;&lt;b&gt;basedOn&lt;/b&gt;: NULL&lt;br&gt;&lt;br&gt;&lt;br&gt;&lt;/font&gt;" style="aspect=fixed;align=left;verticalAlign=middle;html=1;fontSize=8;horizontal=1;" parent="1" vertex="1">
          <mxGeometry x="370" y="590" width="80" height="80" as="geometry" />
        </mxCell>
        <mxCell id="urf95hoz3ueYo8sumKi7-52" value="&lt;b&gt;TransferedID&lt;/b&gt;: 1&lt;br&gt;&lt;br&gt;&lt;b&gt;from&lt;/b&gt;: &lt;span style=&quot;background-color: rgb(248, 206, 204);&quot;&gt;supplier2ID&lt;/span&gt;&lt;br&gt;&lt;br&gt;&lt;b&gt;to&lt;/b&gt;: &lt;span style=&quot;background-color: rgb(248, 206, 204);&quot;&gt;supplier1ID&lt;/span&gt;" style="whiteSpace=wrap;html=1;aspect=fixed;fontSize=8;align=left;" parent="1" vertex="1">
          <mxGeometry x="480" y="590" width="80" height="80" as="geometry" />
        </mxCell>
        <mxCell id="urf95hoz3ueYo8sumKi7-53" style="edgeStyle=orthogonalEdgeStyle;rounded=0;orthogonalLoop=1;jettySize=auto;html=1;entryX=0.5;entryY=0;entryDx=0;entryDy=0;" parent="1" source="urf95hoz3ueYo8sumKi7-55" target="urf95hoz3ueYo8sumKi7-56" edge="1">
          <mxGeometry relative="1" as="geometry" />
        </mxCell>
        <mxCell id="urf95hoz3ueYo8sumKi7-54" value="produce( )" style="edgeLabel;html=1;align=center;verticalAlign=middle;resizable=0;points=[];" parent="urf95hoz3ueYo8sumKi7-53" vertex="1" connectable="0">
          <mxGeometry x="-0.0716" relative="1" as="geometry">
            <mxPoint as="offset" />
          </mxGeometry>
        </mxCell>
        <mxCell id="urf95hoz3ueYo8sumKi7-55" value="Tier 1&amp;nbsp;&lt;br&gt;Supplier" style="text;html=1;strokeColor=none;fillColor=none;align=center;verticalAlign=middle;whiteSpace=wrap;rounded=0;" parent="1" vertex="1">
          <mxGeometry x="600" y="500" width="60" height="30" as="geometry" />
        </mxCell>
        <mxCell id="urf95hoz3ueYo8sumKi7-56" value="&lt;font style=&quot;font-size: 7px;&quot;&gt;&lt;b&gt;ProductID&lt;/b&gt;: &amp;nbsp;2&lt;br&gt;&lt;br&gt;&lt;b&gt;basedOn&lt;/b&gt;: [ 1 ]&lt;br&gt;&lt;br&gt;&lt;br&gt;&lt;/font&gt;" style="aspect=fixed;align=left;verticalAlign=middle;html=1;fontSize=8;horizontal=1;" parent="1" vertex="1">
          <mxGeometry x="590" y="590" width="80" height="80" as="geometry" />
        </mxCell>
        <mxCell id="urf95hoz3ueYo8sumKi7-57" style="rounded=0;orthogonalLoop=1;jettySize=auto;html=1;exitX=0.25;exitY=1;exitDx=0;exitDy=0;entryX=0.75;entryY=0;entryDx=0;entryDy=0;" parent="1" source="urf95hoz3ueYo8sumKi7-55" target="urf95hoz3ueYo8sumKi7-52" edge="1">
          <mxGeometry relative="1" as="geometry">
            <mxPoint x="435" y="540" as="sourcePoint" />
            <mxPoint x="510" y="600" as="targetPoint" />
          </mxGeometry>
        </mxCell>
        <mxCell id="urf95hoz3ueYo8sumKi7-58" value="transfer( )" style="text;html=1;align=center;verticalAlign=middle;resizable=0;points=[];autosize=1;strokeColor=none;fillColor=none;rotation=38;" parent="1" vertex="1">
          <mxGeometry x="427" y="537" width="80" height="30" as="geometry" />
        </mxCell>
        <mxCell id="urf95hoz3ueYo8sumKi7-59" value="transfer( )" style="text;html=1;align=center;verticalAlign=middle;resizable=0;points=[];autosize=1;strokeColor=none;fillColor=none;rotation=321;" parent="1" vertex="1">
          <mxGeometry x="534" y="535" width="80" height="30" as="geometry" />
        </mxCell>
        <mxCell id="urf95hoz3ueYo8sumKi7-60" style="rounded=0;orthogonalLoop=1;jettySize=auto;html=1;exitX=0.75;exitY=1;exitDx=0;exitDy=0;entryX=0.25;entryY=0;entryDx=0;entryDy=0;" parent="1" source="urf95hoz3ueYo8sumKi7-55" target="urf95hoz3ueYo8sumKi7-61" edge="1">
          <mxGeometry relative="1" as="geometry">
            <mxPoint x="645" y="530" as="sourcePoint" />
          </mxGeometry>
        </mxCell>
        <mxCell id="urf95hoz3ueYo8sumKi7-61" value="&lt;b&gt;TransferedID&lt;/b&gt;: 2&lt;br&gt;&lt;br&gt;&lt;b&gt;from&lt;/b&gt;: &lt;span style=&quot;background-color: rgb(255, 255, 102);&quot;&gt;supplier2ID&lt;/span&gt;&lt;br&gt;&lt;br&gt;&lt;b&gt;to&lt;/b&gt;: &lt;span style=&quot;background-color: rgb(255, 255, 102);&quot;&gt;oemID&lt;/span&gt;" style="whiteSpace=wrap;html=1;aspect=fixed;fontSize=8;align=left;" parent="1" vertex="1">
          <mxGeometry x="700" y="590" width="80" height="80" as="geometry" />
        </mxCell>
        <mxCell id="urf95hoz3ueYo8sumKi7-62" style="edgeStyle=orthogonalEdgeStyle;rounded=0;orthogonalLoop=1;jettySize=auto;html=1;entryX=0.5;entryY=0;entryDx=0;entryDy=0;" parent="1" source="urf95hoz3ueYo8sumKi7-64" target="urf95hoz3ueYo8sumKi7-65" edge="1">
          <mxGeometry relative="1" as="geometry" />
        </mxCell>
        <mxCell id="urf95hoz3ueYo8sumKi7-63" value="produce( )" style="edgeLabel;html=1;align=center;verticalAlign=middle;resizable=0;points=[];" parent="urf95hoz3ueYo8sumKi7-62" vertex="1" connectable="0">
          <mxGeometry x="-0.0716" relative="1" as="geometry">
            <mxPoint as="offset" />
          </mxGeometry>
        </mxCell>
        <mxCell id="urf95hoz3ueYo8sumKi7-64" value="OEM" style="text;html=1;strokeColor=none;fillColor=none;align=center;verticalAlign=middle;whiteSpace=wrap;rounded=0;" parent="1" vertex="1">
          <mxGeometry x="820" y="500" width="60" height="30" as="geometry" />
        </mxCell>
        <mxCell id="urf95hoz3ueYo8sumKi7-65" value="&lt;font style=&quot;font-size: 7px;&quot;&gt;&lt;b&gt;ProductID&lt;/b&gt;: &amp;nbsp;3&lt;br&gt;&lt;br&gt;&lt;b&gt;basedOn&lt;/b&gt;: [ 2 ]&lt;br&gt;&lt;br&gt;&lt;br&gt;&lt;/font&gt;" style="aspect=fixed;align=left;verticalAlign=middle;html=1;fontSize=8;horizontal=1;" parent="1" vertex="1">
          <mxGeometry x="810" y="590" width="80" height="80" as="geometry" />
        </mxCell>
        <mxCell id="urf95hoz3ueYo8sumKi7-66" style="rounded=0;orthogonalLoop=1;jettySize=auto;html=1;exitX=0.25;exitY=1;exitDx=0;exitDy=0;entryX=0.75;entryY=0;entryDx=0;entryDy=0;" parent="1" source="urf95hoz3ueYo8sumKi7-64" target="urf95hoz3ueYo8sumKi7-61" edge="1">
          <mxGeometry relative="1" as="geometry">
            <mxPoint x="655" y="540" as="sourcePoint" />
            <mxPoint x="730" y="600" as="targetPoint" />
          </mxGeometry>
        </mxCell>
        <mxCell id="urf95hoz3ueYo8sumKi7-67" value="transfer( )" style="text;html=1;align=center;verticalAlign=middle;resizable=0;points=[];autosize=1;strokeColor=none;fillColor=none;rotation=38;" parent="1" vertex="1">
          <mxGeometry x="647" y="537" width="80" height="30" as="geometry" />
        </mxCell>
        <mxCell id="urf95hoz3ueYo8sumKi7-68" value="transfer( )" style="text;html=1;align=center;verticalAlign=middle;resizable=0;points=[];autosize=1;strokeColor=none;fillColor=none;rotation=321;" parent="1" vertex="1">
          <mxGeometry x="754" y="535" width="80" height="30" as="geometry" />
        </mxCell>
        <mxCell id="Nun4g4gpAGNbCtUw3FpC-1" value="produce( )" style="edgeStyle=orthogonalEdgeStyle;rounded=0;orthogonalLoop=1;jettySize=auto;html=1;entryX=0.504;entryY=-0.029;entryDx=0;entryDy=0;entryPerimeter=0;" edge="1" parent="1" source="Nun4g4gpAGNbCtUw3FpC-3" target="Nun4g4gpAGNbCtUw3FpC-4">
          <mxGeometry relative="1" as="geometry" />
        </mxCell>
        <mxCell id="Nun4g4gpAGNbCtUw3FpC-2" style="rounded=0;orthogonalLoop=1;jettySize=auto;html=1;exitX=0.75;exitY=1;exitDx=0;exitDy=0;entryX=0.25;entryY=0;entryDx=0;entryDy=0;" edge="1" parent="1" source="Nun4g4gpAGNbCtUw3FpC-3" target="Nun4g4gpAGNbCtUw3FpC-5">
          <mxGeometry relative="1" as="geometry" />
        </mxCell>
        <mxCell id="Nun4g4gpAGNbCtUw3FpC-3" value="Tier 2&amp;nbsp;&lt;br&gt;Supplier" style="text;html=1;strokeColor=none;fillColor=none;align=center;verticalAlign=middle;whiteSpace=wrap;rounded=0;" vertex="1" parent="1">
          <mxGeometry x="380" y="40" width="60" height="30" as="geometry" />
        </mxCell>
        <mxCell id="Nun4g4gpAGNbCtUw3FpC-4" value="&lt;font style=&quot;font-size: 7px;&quot;&gt;&lt;b&gt;ProductID&lt;/b&gt;: &amp;nbsp;1&lt;br&gt;&lt;br&gt;&lt;b&gt;basedOn&lt;/b&gt;: NULL&lt;br&gt;&lt;br&gt;&lt;br&gt;&lt;/font&gt;" style="aspect=fixed;align=left;verticalAlign=middle;html=1;fontSize=8;horizontal=1;" vertex="1" parent="1">
          <mxGeometry x="370" y="130" width="80" height="80" as="geometry" />
        </mxCell>
        <mxCell id="Nun4g4gpAGNbCtUw3FpC-5" value="&lt;b&gt;TransferedID&lt;/b&gt;: 1&lt;br&gt;&lt;br&gt;&lt;b&gt;from&lt;/b&gt;: supplier2ID&lt;br&gt;&lt;br&gt;&lt;b&gt;to&lt;/b&gt;: supplier1ID" style="whiteSpace=wrap;html=1;aspect=fixed;fontSize=8;align=left;" vertex="1" parent="1">
          <mxGeometry x="480" y="130" width="80" height="80" as="geometry" />
        </mxCell>
        <mxCell id="Nun4g4gpAGNbCtUw3FpC-6" style="edgeStyle=orthogonalEdgeStyle;rounded=0;orthogonalLoop=1;jettySize=auto;html=1;entryX=0.5;entryY=0;entryDx=0;entryDy=0;" edge="1" parent="1" source="Nun4g4gpAGNbCtUw3FpC-8" target="Nun4g4gpAGNbCtUw3FpC-9">
          <mxGeometry relative="1" as="geometry" />
        </mxCell>
        <mxCell id="Nun4g4gpAGNbCtUw3FpC-7" value="produce( )" style="edgeLabel;html=1;align=center;verticalAlign=middle;resizable=0;points=[];" vertex="1" connectable="0" parent="Nun4g4gpAGNbCtUw3FpC-6">
          <mxGeometry x="-0.0716" relative="1" as="geometry">
            <mxPoint as="offset" />
          </mxGeometry>
        </mxCell>
        <mxCell id="Nun4g4gpAGNbCtUw3FpC-8" value="Tier 1&amp;nbsp;&lt;br&gt;Supplier" style="text;html=1;strokeColor=none;fillColor=none;align=center;verticalAlign=middle;whiteSpace=wrap;rounded=0;" vertex="1" parent="1">
          <mxGeometry x="600" y="40" width="60" height="30" as="geometry" />
        </mxCell>
        <mxCell id="Nun4g4gpAGNbCtUw3FpC-9" value="&lt;font style=&quot;font-size: 7px;&quot;&gt;&lt;b&gt;ProductID&lt;/b&gt;: &amp;nbsp;2&lt;br&gt;&lt;br&gt;&lt;b&gt;basedOn&lt;/b&gt;: [ 1 ]&lt;br&gt;&lt;br&gt;&lt;br&gt;&lt;/font&gt;" style="aspect=fixed;align=left;verticalAlign=middle;html=1;fontSize=8;horizontal=1;" vertex="1" parent="1">
          <mxGeometry x="590" y="130" width="80" height="80" as="geometry" />
        </mxCell>
        <mxCell id="Nun4g4gpAGNbCtUw3FpC-10" style="rounded=0;orthogonalLoop=1;jettySize=auto;html=1;exitX=0.25;exitY=1;exitDx=0;exitDy=0;entryX=0.75;entryY=0;entryDx=0;entryDy=0;" edge="1" parent="1" source="Nun4g4gpAGNbCtUw3FpC-8" target="Nun4g4gpAGNbCtUw3FpC-5">
          <mxGeometry relative="1" as="geometry">
            <mxPoint x="435" y="80" as="sourcePoint" />
            <mxPoint x="510" y="140" as="targetPoint" />
          </mxGeometry>
        </mxCell>
        <mxCell id="Nun4g4gpAGNbCtUw3FpC-11" value="transfer( )" style="text;html=1;align=center;verticalAlign=middle;resizable=0;points=[];autosize=1;strokeColor=none;fillColor=none;rotation=38;" vertex="1" parent="1">
          <mxGeometry x="427" y="77" width="80" height="30" as="geometry" />
        </mxCell>
        <mxCell id="Nun4g4gpAGNbCtUw3FpC-12" value="transfer( )" style="text;html=1;align=center;verticalAlign=middle;resizable=0;points=[];autosize=1;strokeColor=none;fillColor=none;rotation=321;" vertex="1" parent="1">
          <mxGeometry x="534" y="75" width="80" height="30" as="geometry" />
        </mxCell>
        <mxCell id="Nun4g4gpAGNbCtUw3FpC-13" style="rounded=0;orthogonalLoop=1;jettySize=auto;html=1;exitX=0.75;exitY=1;exitDx=0;exitDy=0;entryX=0.25;entryY=0;entryDx=0;entryDy=0;" edge="1" parent="1" source="Nun4g4gpAGNbCtUw3FpC-8" target="Nun4g4gpAGNbCtUw3FpC-14">
          <mxGeometry relative="1" as="geometry">
            <mxPoint x="645" y="70" as="sourcePoint" />
          </mxGeometry>
        </mxCell>
        <mxCell id="Nun4g4gpAGNbCtUw3FpC-14" value="&lt;b&gt;TransferedID&lt;/b&gt;: 2&lt;br&gt;&lt;br&gt;&lt;b&gt;from&lt;/b&gt;: supplier2ID&lt;br&gt;&lt;br&gt;&lt;b&gt;to&lt;/b&gt;: oemID" style="whiteSpace=wrap;html=1;aspect=fixed;fontSize=8;align=left;" vertex="1" parent="1">
          <mxGeometry x="700" y="130" width="80" height="80" as="geometry" />
        </mxCell>
        <mxCell id="Nun4g4gpAGNbCtUw3FpC-15" style="edgeStyle=orthogonalEdgeStyle;rounded=0;orthogonalLoop=1;jettySize=auto;html=1;entryX=0.5;entryY=0;entryDx=0;entryDy=0;" edge="1" parent="1" source="Nun4g4gpAGNbCtUw3FpC-17" target="Nun4g4gpAGNbCtUw3FpC-18">
          <mxGeometry relative="1" as="geometry" />
        </mxCell>
        <mxCell id="Nun4g4gpAGNbCtUw3FpC-16" value="produce( )" style="edgeLabel;html=1;align=center;verticalAlign=middle;resizable=0;points=[];" vertex="1" connectable="0" parent="Nun4g4gpAGNbCtUw3FpC-15">
          <mxGeometry x="-0.0716" relative="1" as="geometry">
            <mxPoint as="offset" />
          </mxGeometry>
        </mxCell>
        <mxCell id="Nun4g4gpAGNbCtUw3FpC-17" value="OEM" style="text;html=1;strokeColor=none;fillColor=none;align=center;verticalAlign=middle;whiteSpace=wrap;rounded=0;" vertex="1" parent="1">
          <mxGeometry x="820" y="40" width="60" height="30" as="geometry" />
        </mxCell>
        <mxCell id="Nun4g4gpAGNbCtUw3FpC-18" value="&lt;font style=&quot;font-size: 7px;&quot;&gt;&lt;b&gt;ProductID&lt;/b&gt;: &amp;nbsp;3&lt;br&gt;&lt;br&gt;&lt;b&gt;basedOn&lt;/b&gt;: [ 2 ]&lt;br&gt;&lt;br&gt;&lt;br&gt;&lt;/font&gt;" style="aspect=fixed;align=left;verticalAlign=middle;html=1;fontSize=8;horizontal=1;" vertex="1" parent="1">
          <mxGeometry x="810" y="130" width="80" height="80" as="geometry" />
        </mxCell>
        <mxCell id="Nun4g4gpAGNbCtUw3FpC-19" style="rounded=0;orthogonalLoop=1;jettySize=auto;html=1;exitX=0.25;exitY=1;exitDx=0;exitDy=0;entryX=0.75;entryY=0;entryDx=0;entryDy=0;" edge="1" parent="1" source="Nun4g4gpAGNbCtUw3FpC-17" target="Nun4g4gpAGNbCtUw3FpC-14">
          <mxGeometry relative="1" as="geometry">
            <mxPoint x="655" y="80" as="sourcePoint" />
            <mxPoint x="730" y="140" as="targetPoint" />
          </mxGeometry>
        </mxCell>
        <mxCell id="Nun4g4gpAGNbCtUw3FpC-20" value="transfer( )" style="text;html=1;align=center;verticalAlign=middle;resizable=0;points=[];autosize=1;strokeColor=none;fillColor=none;rotation=38;" vertex="1" parent="1">
          <mxGeometry x="647" y="77" width="80" height="30" as="geometry" />
        </mxCell>
        <mxCell id="Nun4g4gpAGNbCtUw3FpC-21" value="transfer( )" style="text;html=1;align=center;verticalAlign=middle;resizable=0;points=[];autosize=1;strokeColor=none;fillColor=none;rotation=321;" vertex="1" parent="1">
          <mxGeometry x="754" y="75" width="80" height="30" as="geometry" />
        </mxCell>
      </root>
    </mxGraphModel>
  </diagram>
</mxfile>
